<svg width="100" height="100">
 <g>
  <path stroke="null" id="svg_1" d="m50.158999,11.750652c-6.232354,6.282653 -8.660159,14.858382 -7.494368,23.01651l11.55428,-11.640619c0.014804,-0.018643 0.051813,-0.029829 0.059215,-0.044743c0.777194,-1.502617 1.717228,-2.941848 2.96814,-4.198378c6.565437,-6.621954 17.212991,-6.618225 23.789531,0c6.569138,6.610768 6.57654,17.345343 0.007402,23.971025c-1.258314,1.267716 -2.690571,2.211047 -4.185743,2.997776c-0.014804,0.007457 -0.022206,0.022371 -0.037009,0.037286l-11.557981,11.644348c8.097619,1.178231 16.624544,-1.267716 22.856898,-7.542913c10.481013,-10.559332 10.473611,-27.677232 0,-38.236563c-10.488415,-10.559332 -27.479351,-10.559332 -37.960363,-0.003729zm-4.108024,65.123337c-0.773493,1.510074 -1.709826,2.949305 -2.964439,4.217021c-6.569138,6.614497 -17.231496,6.614497 -23.800633,0c-6.569138,-6.614497 -6.569138,-17.349072 0,-23.974754c1.254613,-1.260259 2.683169,-2.203589 4.174641,-2.982862c0.014804,-0.022371 0.018505,-0.044743 0.04071,-0.059657l11.55058,-11.644348c-8.093918,-1.178231 -16.613442,1.275174 -22.842094,7.546641c-10.477312,10.555603 -10.473611,27.677232 0,38.236563c10.484714,10.555603 27.47565,10.555603 37.960363,0c6.232354,-6.278925 8.667561,-14.86211 7.486966,-23.023967l-11.565383,11.644348c-0.011103,0.0261 -0.025906,0.033557 -0.04071,0.041014zm-18.93392,-11.864334l8.130927,8.191685c1.987395,2.002246 5.244207,2.002246 7.227902,0l30.72506,-30.954651c1.994797,-1.998518 1.994797,-5.283394 0.007402,-7.278183l-8.138329,-8.191685c-1.983695,-2.009703 -5.240506,-2.009703 -7.224201,-0.007457l-30.72506,30.95838c-1.991096,2.002246 -1.991096,5.283394 -0.003701,7.281912z" stroke-width="1.5" fill="#000000"/>
 </g>
</svg>
